<?xml version="1.0" encoding="UTF-8" standalone="no"?><!DOCTYPE svg PUBLIC "-//W3C//DTD SVG 1.1//EN" "http://www.w3.org/Graphics/SVG/1.1/DTD/svg11.dtd"><svg width="100%" height="100%" viewBox="0 0 55 55" version="1.1" xmlns="http://www.w3.org/2000/svg" xmlns:xlink="http://www.w3.org/1999/xlink" xml:space="preserve" style="fill-rule:evenodd;clip-rule:evenodd;stroke-linejoin:round;stroke-miterlimit:1.41421;"><path d="M7.767,47.5l24.5,0c-1.134,-0.9 -2.034,-2.033 -2.7,-3.333l-10.367,0l1.633,-3.334l7.634,0c-0.1,-0.533 -0.134,-1.1 -0.134,-1.666c0,-4 1.6,-6.934 4.967,-9.134l0,-1.666l-5.833,0l0,5.8l-5.8,0l0,-5.8l-5.834,0l0,-5.867l5.834,0l0,-5.867l-5.834,0l0,-5.833l5.834,0l0,5.833l5.8,0l0,-5.833l5.833,0l0,5.833l5.867,0l0,5.867l-5.867,0l0,5.867l5.867,0c1.166,0 2.266,0.166 3.333,0.5l0,-19.5c0,-1.867 0,-1.867 -1.867,-1.867l-26.266,0c-1.867,0 -1.867,0 -1.867,1.867l0,25.433l-6.833,9.367c0,1.833 0.933,3.333 2.1,3.333Zm13.9,-19.133l5.8,0l0,-5.867l-5.8,0l0,5.867Zm27.333,23.866l2.767,-2.733l-5.6,-5.867c0.8,-1.3 1.333,-2.833 1.333,-4.466c0,-4.6 -3.733,-8.334 -8.333,-8.334c-4.634,0 -8.334,3.734 -8.334,8.334c0,4.6 3.7,8.3 8.334,8.3c1.5,0 2.933,-0.4 4.166,-1.1l5.667,5.866Zm-9.833,-8.066c-2.8,0 -5,-2.2 -5,-4.967c0,-2.833 2.2,-5.033 5,-5.033c2.8,0 5,2.2 5,5.033c0,2.767 -2.2,4.967 -5,4.967Zm-11.7,-21.667l5.833,0l0,-5.867l-5.833,0l0,5.867Z" style="fill-rule:nonzero;"/></svg>
