<?xml version="1.0" encoding="UTF-8" standalone="no"?><!DOCTYPE svg PUBLIC "-//W3C//DTD SVG 1.1//EN" "http://www.w3.org/Graphics/SVG/1.1/DTD/svg11.dtd"><svg width="100%" height="100%" viewBox="0 0 55 55" version="1.1" xmlns="http://www.w3.org/2000/svg" xmlns:xlink="http://www.w3.org/1999/xlink" xml:space="preserve" xmlns:serif="http://www.serif.com/" style="fill-rule:evenodd;clip-rule:evenodd;stroke-linejoin:round;stroke-miterlimit:1.41421;"><path d="M11.667,47.5l31.666,0c2.5,0 4.167,-0.833 4.167,-4.167l0,-31.666c0,-2.5 -1.667,-4.167 -4.167,-4.167l-31.666,0c-3.334,0 -4.167,1.667 -4.167,4.167l0,31.666c0,3.334 0.833,4.167 4.167,4.167Zm-0.834,-19.933l0,16.6l16.734,0l0,-16.6l-16.734,0Zm0.834,16.533c-0.467,0 -0.834,-0.367 -0.834,-0.833l0,-31.6c0,-0.467 0.367,-0.834 0.834,-0.834l31.666,0c0.467,0 0.834,0.367 0.834,0.834l0,31.6c0,0.466 -0.367,0.833 -0.834,0.833l-31.666,0Zm15.9,-33.267l0,16.734l16.6,0l0,-16.734l-16.6,0Z" style="fill:#fff;fill-rule:nonzero;"/></svg>