<?xml version="1.0" encoding="utf-8"?>
<!-- Generator: Adobe Illustrator 26.5.0, SVG Export Plug-In . SVG Version: 6.00 Build 0)  -->
<svg version="1.1" id="Layer_1" xmlns="http://www.w3.org/2000/svg" xmlns:xlink="http://www.w3.org/1999/xlink" x="0px" y="0px"
	 viewBox="0 0 16 13" style="enable-background:new 0 0 16 13;" xml:space="preserve">
<g>
	<path d="M2.1,6.9v2.9c0,0.8,0.3,1.5,0.8,2.1s1.3,0.9,2,0.9h5c0.2,0,0.4-0.2,0.4-0.4v-1.3c0-0.2-0.2-0.4-0.4-0.4h-5
		c-0.2,0-0.4-0.1-0.6-0.3C4.2,10.3,4.1,10,4.1,9.8V6.9"/>
	<path d="M4.1,9.8V6.9h-2v2.9"/>
	<path d="M2.5,3.4L0.6,5.7C0.2,6.2,0.6,7,1.3,7h3.6C5.6,7,6,6.2,5.5,5.7L3.7,3.4C3.4,3,2.8,3,2.5,3.4z"/>
	<path d="M14,6.1V3.2c0-0.8-0.3-1.5-0.8-2.1s-1.3-0.9-2-0.9h-5C6,0.2,5.8,0.4,5.8,0.6v1.3c0,0.2,0.2,0.4,0.4,0.4h5
		c0.2,0,0.4,0.1,0.6,0.3C11.9,2.7,12,3,12,3.2v2.9"/>
	<path d="M12,3.2v2.9h2V3.2"/>
	<path d="M13.6,9.6l1.8-2.3C15.9,6.8,15.5,6,14.8,6h-3.6c-0.7,0-1.1,0.8-0.6,1.3l1.8,2.3C12.7,10,13.3,10,13.6,9.6z"/>
</g>
</svg>
